<svg viewBox="0 0 480 520" fill="none" xmlns="http://www.w3.org/2000/svg">
            <circle cx="280" cy="260" r="200" fill="rgba(227,6,19,0.04)" stroke="rgba(227,6,19,0.08)"
              stroke-width="1" />
            <circle cx="280" cy="260" r="155" fill="rgba(227,6,19,0.03)" stroke="rgba(227,6,19,0.06)" stroke-width="1"
              stroke-dasharray="8 6" />
            <rect x="40" y="420" width="400" height="6" rx="3" fill="#E3E0DC" />
            <rect x="60" y="426" width="360" height="3" rx="1.5" fill="#CCCAC6" />
            <g opacity="0.18">
              <rect x="320" y="150" width="100" height="270" rx="2" fill="none" stroke="#0D0C0E" stroke-width="2" />
              <line x1="320" y1="200" x2="420" y2="200" stroke="#0D0C0E" stroke-width="1.5" />
              <line x1="320" y1="250" x2="420" y2="250" stroke="#0D0C0E" stroke-width="1.5" />
              <line x1="320" y1="300" x2="420" y2="300" stroke="#0D0C0E" stroke-width="1.5" />
              <line x1="320" y1="350" x2="420" y2="350" stroke="#0D0C0E" stroke-width="1.5" />
              <line x1="370" y1="150" x2="370" y2="420" stroke="#0D0C0E" stroke-width="1.5" />
              <rect x="330" y="160" width="28" height="28" rx="2" fill="#0D0C0E" />
              <rect x="375" y="160" width="28" height="28" rx="2" fill="#0D0C0E" />
              <rect x="330" y="210" width="28" height="28" rx="2" fill="#0D0C0E" />
              <rect x="375" y="210" width="28" height="28" rx="2" fill="#0D0C0E" />
              <rect x="330" y="260" width="28" height="28" rx="2" fill="#0D0C0E" />
              <rect x="375" y="260" width="28" height="28" rx="2" fill="#0D0C0E" />
              <rect x="330" y="310" width="28" height="28" rx="2" fill="#0D0C0E" />
              <rect x="375" y="310" width="28" height="28" rx="2" fill="#0D0C0E" />
            </g>
            <rect x="100" y="100" width="8" height="322" rx="4" fill="#CCCAC6" />
            <rect x="268" y="100" width="8" height="322" rx="4" fill="#CCCAC6" />
            <rect x="96" y="130" width="184" height="6" rx="3" fill="#CCCAC6" />
            <rect x="96" y="220" width="184" height="6" rx="3" fill="#CCCAC6" />
            <rect x="96" y="310" width="184" height="6" rx="3" fill="#CCCAC6" />
            <rect x="94" y="124" width="188" height="10" rx="2" fill="#E3DDD6" stroke="#CCCAC6" stroke-width="1" />
            <rect x="94" y="214" width="188" height="10" rx="2" fill="#E3DDD6" stroke="#CCCAC6" stroke-width="1" />
            <rect x="94" y="304" width="188" height="10" rx="2" fill="#E3DDD6" stroke="#CCCAC6" stroke-width="1" />
            <g id="worker" transform="translate(160, 80)">
              <ellipse cx="28" cy="10" rx="22" ry="10" fill="#E30613" />
              <rect x="8" y="10" width="40" height="6" rx="2" fill="#E30613" />
              <rect x="6" y="14" width="44" height="3" rx="1.5" fill="#c00510" />
              <circle cx="28" cy="26" r="13" fill="#F5C9A0" />
              <ellipse cx="22" cy="25" rx="6" ry="5" fill="none" stroke="#3D3A42" stroke-width="1.5" />
              <ellipse cx="34" cy="25" rx="6" ry="5" fill="none" stroke="#3D3A42" stroke-width="1.5" />
              <rect x="12" y="40" width="32" height="38" rx="4" fill="#F59E0B" />
              <rect x="12" y="50" width="32" height="4" rx="1" fill="#E30613" />
              <rect x="12" y="62" width="32" height="4" rx="1" fill="#E30613" />
              <rect x="20" y="40" width="16" height="10" rx="2" fill="#3D3A42" />
              <rect x="-4" y="40" width="12" height="30" rx="6" fill="#F59E0B" transform="rotate(-30 4 40)" />
              <ellipse cx="-8" cy="64" rx="9" ry="7" fill="#E30613" transform="rotate(-30 4 40)" />
              <rect x="44" y="40" width="12" height="32" rx="6" fill="#F59E0B" />
              <ellipse cx="50" cy="75" rx="9" ry="7" fill="#E30613" />
              <rect x="-28" y="52" width="28" height="10" rx="4" fill="#3D3A42" />
              <rect x="-34" y="55" width="8" height="5" rx="2" fill="#CCCAC6" />
              <circle cx="-32" cy="57" r="3" fill="#E30613" />
              <rect x="12" y="76" width="14" height="36" rx="4" fill="#3D3A42" />
              <rect x="30" y="76" width="14" height="36" rx="4" fill="#3D3A42" />
              <rect x="8" y="108" width="18" height="10" rx="4" fill="#1A1A1A" />
              <rect x="28" y="108" width="18" height="10" rx="4" fill="#1A1A1A" />
              <rect x="6" y="115" width="22" height="5" rx="2" fill="#0D0C0E" />
              <rect x="26" y="115" width="22" height="5" rx="2" fill="#0D0C0E" />
              <path d="M44 52 Q62 40 70 30" stroke="#E30613" stroke-width="2" stroke-dasharray="4 3" fill="none" />
              <circle cx="72" cy="27" r="4" fill="none" stroke="#E30613" stroke-width="2" />
            </g>
            <rect x="106" y="198" width="42" height="18" rx="3" fill="#3D3A42" />
            <rect x="106" y="193" width="42" height="7" rx="2" fill="#CCCAC6" />
            <rect x="122" y="190" width="10" height="6" rx="2" fill="#CCCAC6" />
            <g transform="translate(50, 380)">
              <polygon points="14,0 0,36 28,36" fill="#E30613" />
              <rect x="1" y="15" width="26" height="4" rx="1" fill="white" opacity="0.7" />
              <rect x="0" y="32" width="28" height="5" rx="2" fill="#CCCAC6" />
            </g>
            <g transform="translate(310, 390)" opacity="0.7">
              <polygon points="10,0 0,26 20,26" fill="#E30613" />
              <rect x="1" y="11" width="18" height="3" rx="1" fill="white" opacity="0.7" />
              <rect x="0" y="23" width="20" height="4" rx="2" fill="#CCCAC6" />
            </g>
            <g transform="translate(58, 350)">
              <rect x="0" y="0" width="88" height="48" rx="4" fill="#E30613" />
              <rect x="4" y="4" width="80" height="40" rx="2" fill="none" stroke="white" stroke-width="1.5" />
              <text x="44" y="19" font-family="'Barlow Condensed', sans-serif" font-size="9" font-weight="900"
                fill="white" text-anchor="middle" letter-spacing="1">SAFETY</text>
              <text x="44" y="32" font-family="'Barlow Condensed', sans-serif" font-size="9" font-weight="900"
                fill="white" text-anchor="middle" letter-spacing="1">FIRST</text>
              <polygon points="44,35 38,45 50,45" fill="yellow" opacity="0.9" />
              <text x="44" y="44" font-size="7" fill="#0D0C0E" text-anchor="middle" font-weight="bold">!</text>
            </g>
            <g id="floatIcon1" transform="translate(395, 160)">
              <circle cx="20" cy="20" r="20" fill="rgba(227,6,19,0.1)" stroke="rgba(227,6,19,0.2)" stroke-width="1" />
              <path d="M20 8L10 12V18C10 23 14 28 20 30C26 28 30 23 30 18V12Z" stroke="#E30613" stroke-width="1.5"
                fill="none" />
              <polyline points="15,20 18,23 25,16" stroke="#E30613" stroke-width="1.8" stroke-linecap="round"
                stroke-linejoin="round" />
            </g>
          </svg>